# Blender v2.80 (sub 75) OBJ File: ''
# www.blender.org
mtllib Triangle.mtl
o Cube
v 1.000000 1.000000 -1.000000
v 1.000000 -1.000000 -1.000000
v 1.000000 1.000000 1.000000
v 1.000000 -1.000000 1.000000
v -1.000000 1.000000 -1.000000
v -1.000000 -1.000000 -1.000000
vt 0.375000 0.750000
vt 0.625000 0.750000
vt 0.625000 1.000000
vt 0.125000 0.500000
vt 0.375000 0.500000
vt 0.375000 0.750000
vt 0.125000 0.750000
vt 0.625000 0.500000
vt 0.875000 0.500000
vt 0.875000 0.750000
vt 0.375000 0.000000
vt 0.625000 0.000000
vt 0.375000 0.250000
vn 0.0000 -1.0000 0.0000
vn 1.0000 0.0000 0.0000
vn 0.0000 0.0000 -1.0000
vn 0.0000 1.0000 0.0000
vn -0.7071 0.0000 0.7071
usemtl Material
s off
f 6/1/1 2/2/1 4/3/1
f 2/4/2 1/5/2 3/6/2 4/7/2
f 6/8/3 5/9/3 1/10/3 2/2/3
f 1/11/4 5/12/4 3/13/4
f 4/3/5 3/13/5 5/9/5 6/1/5
